<svg width="10" height="10" viewBox="0 0 10 10" fill="none" xmlns="http://www.w3.org/2000/svg">
<path fill-rule="evenodd" clip-rule="evenodd" d="M2.3904 2.4012C2.1704 2.6212 1.88507 2.73987 1.56907 2.73987C1.27307 2.73987 0.982405 2.61853 0.749071 2.39987C0.527738 2.17987 0.402405 1.87853 0.402405 1.5732C0.402405 1.28253 0.525071 0.983867 0.741071 0.753201C0.859738 0.633201 1.00107 0.542534 1.1424 0.494534C1.54507 0.310534 2.07974 0.418534 2.39707 0.751867C2.5104 0.865201 2.59707 0.989201 2.6544 1.11853C2.71707 1.2572 2.74907 1.41453 2.74907 1.5732C2.74907 1.89053 2.6224 2.1852 2.3904 2.4012ZM9.254 0.746401C8.79934 0.293067 8.05934 0.293067 7.60467 0.746401L0.751337 7.59973C0.296671 8.0544 0.296671 8.7944 0.751337 9.2504C0.972671 9.4704 1.26467 9.59173 1.57667 9.59173C1.88867 9.59173 2.18067 9.4704 2.40067 9.2504L9.254 2.39707C9.70867 1.94107 9.70867 1.2024 9.254 0.746401ZM8.8744 7.35187C8.4424 7.17053 7.9304 7.2692 7.58907 7.61053C7.5184 7.6932 7.4184 7.8212 7.3504 7.97187C7.2784 8.13453 7.26907 8.3092 7.26907 8.42653C7.26907 8.54387 7.2784 8.7172 7.3504 8.87987C7.41707 9.0292 7.49707 9.15053 7.6024 9.25587C7.84374 9.47987 8.12374 9.5932 8.43574 9.5932C8.73174 9.5932 9.0224 9.4732 9.26107 9.25054C9.47307 9.03854 9.58907 8.7452 9.58907 8.42653C9.58907 8.10653 9.47307 7.81453 9.25974 7.6012C9.1424 7.4852 9.00107 7.39453 8.8744 7.35187Z" fill="#00F6FF"/>
</svg>
