<svg width="26" height="31" viewBox="0 0 26 31" fill="none" xmlns="http://www.w3.org/2000/svg">
<path d="M7.3616 29.5863L7.89391 26.2158L6.70816 26.1884H1.0461L4.98094 1.31793C4.99266 1.24194 5.03138 1.17268 5.09004 1.12277C5.14871 1.07286 5.22341 1.04562 5.30053 1.04602H14.8476C18.017 1.04602 20.2043 1.70347 21.3463 3.00113C21.8816 3.60988 22.2226 4.24602 22.3875 4.94608C22.5605 5.68064 22.5636 6.55826 22.3946 7.62864L22.3824 7.70676V8.39262L22.9178 8.69497C23.3265 8.90137 23.6939 9.18059 24.0017 9.51881C24.4598 10.0393 24.7559 10.7008 24.8811 11.4851C25.0104 12.2917 24.9676 13.2515 24.7559 14.3381C24.5117 15.588 24.1168 16.6767 23.5834 17.5675C23.1129 18.3655 22.4802 19.0567 21.7259 19.5967C21.0175 20.0979 20.1758 20.4783 19.2241 20.7218C18.302 20.9613 17.2506 21.082 16.0974 21.082H15.3544C14.8231 21.082 14.3071 21.2728 13.902 21.6147C13.4975 21.9602 13.2292 22.4377 13.1448 22.962L13.0888 23.2654L12.1483 29.2058L12.1056 29.4239C12.0944 29.4929 12.0751 29.5274 12.0466 29.5507C12.019 29.5732 11.9845 29.5858 11.9489 29.5863H7.3616Z" fill="#253B80"/>
<path d="M23.4285 7.77014C23.4 7.95194 23.3675 8.1378 23.3308 8.32874C22.0724 14.7791 17.767 17.0074 12.2683 17.0074H9.46861C8.79615 17.0074 8.22949 17.4949 8.12471 18.1571L6.69128 27.2329L6.28536 29.8055C6.26919 29.9075 6.27537 30.0119 6.30346 30.1113C6.33155 30.2107 6.38089 30.3029 6.44809 30.3815C6.51529 30.46 6.59874 30.5231 6.69271 30.5664C6.78668 30.6097 6.88892 30.6322 6.99241 30.6322H11.958C12.5461 30.6322 13.0456 30.2056 13.1381 29.6267L13.187 29.3748L14.1219 23.4516L14.1819 23.1266C14.2735 22.5457 14.774 22.1191 15.362 22.1191H16.1047C20.9157 22.1191 24.6819 20.1691 25.7826 14.5262C26.2425 12.1689 26.0044 10.2006 24.7877 8.81625C24.402 8.38802 23.9415 8.03353 23.4285 7.77014Z" fill="#179BD7"/>
<path d="M22.136 7.3246C21.7319 7.20862 21.3208 7.11809 20.9052 7.05357C20.084 6.92835 19.254 6.86827 18.4231 6.8739H10.9011C10.6149 6.87368 10.338 6.97507 10.1205 7.15976C9.90302 7.34444 9.7593 7.60023 9.71534 7.88088L8.11518 17.9365L8.06914 18.2299C8.11899 17.9097 8.28267 17.6179 8.53057 17.4071C8.77847 17.1964 9.09421 17.0806 9.42068 17.0808H12.2363C17.7663 17.0808 22.0961 14.8526 23.3617 8.4067C23.3996 8.21586 23.4313 8.0301 23.4599 7.8484C23.126 7.67464 22.7779 7.52897 22.4194 7.41292C22.3254 7.38198 22.231 7.35253 22.136 7.3246Z" fill="#222D65"/>
<path d="M9.79023 7.84673C9.83362 7.56487 9.97659 7.30794 10.1932 7.1226C10.4097 6.93727 10.6855 6.83583 10.9705 6.83672H18.4573C19.3443 6.83672 20.1722 6.89481 20.9278 7.01711C21.4391 7.09754 21.9434 7.21783 22.436 7.37689C22.8077 7.50021 23.1529 7.64595 23.4716 7.81412C23.8464 5.42208 23.4686 3.79342 22.1763 2.31865C20.7517 0.695087 18.1803 0 14.8901 0H5.33805C4.66595 0 4.09262 0.489211 3.98875 1.15474L0.0100915 26.3949C-0.00844046 26.5121 -0.00138969 26.6319 0.0307587 26.7461C0.0629072 26.8603 0.11939 26.9662 0.196323 27.0565C0.273255 27.1467 0.368811 27.2193 0.476418 27.269C0.584024 27.3188 0.701128 27.3447 0.819672 27.3448H6.71688L8.19755 17.9428L9.79023 7.84673Z" fill="#253B80"/>
</svg>
